<?xml version="1.0" encoding="UTF-8"?>
<svg  id="svg2" width="555.3" height="351.8" version="1.0" xmlns="http://www.w3.org/2000/svg" xmlns:cc="http://creativecommons.org/ns#" xmlns:dc="http://purl.org/dc/elements/1.1/" xmlns:rdf="http://www.w3.org/1999/02/22-rdf-syntax-ns#">
 <metadata id="metadata7">
  <rdf:RDF>
   <cc:Work>
    <dc:format>image/svg+xml</dc:format>
    <dc:type rdf:resource="http://purl.org/dc/dcmitype/StillImage"/>
    <dc:title/>
    <cc:license rdf:resource="http://creativecommons.org/publicdomain/zero/1.0/"/>
    <dc:date>2013-01-30</dc:date>
    <dc:creator>
     <cc:Agent>
      <dc:title>U.S. Census Bureau, Abe.suleiman, Lokal_Profil</dc:title>
     </cc:Agent>
    </dc:creator>
    <dc:source>https://commons.wikimedia.org/wiki/File:Usa_counties_large.svg</dc:source>
   </cc:Work>
   <cc:License rdf:about="http://creativecommons.org/publicdomain/zero/1.0/">
    <cc:permits rdf:resource="http://creativecommons.org/ns#Reproduction"/>
    <cc:permits rdf:resource="http://creativecommons.org/ns#Distribution"/>
    <cc:permits rdf:resource="http://creativecommons.org/ns#DerivativeWorks"/>
   </cc:License>
  </rdf:RDF>
 </metadata>
  <path id="Prince_William__VA" class="c51153" d="m849.45 261.02 0.57668 3e-3 0.31735 0.6049 0.19286 3e-3 -0.0161 0.30123 0.28474-0.0411 0.33661-0.0826 0.19138-0.15519 0.24325 0.14563 0.0358 0.25974 0.34809 0.15435 6e-3 0.2166 0.19248 0.36182 0.1925-0.17759 0.47257 0.40331-0.0461 0.27884 0.22361 0.18547 0.14063-0.12572 0.0323-0.18143 0.62357 0.0364 0.053 0.31649 0.13515 4e-3 0.27-0.23467 1.131 0.60557 0.41523 0.38773-0.68478 3.5996-1.2738-0.16011-1.6169-1.1017-0.69128-0.10425-0.55562 0.98098-0.77062-0.86792-3.7672-4.814-0.0571-0.248 0.0623-0.49721-0.03-0.46029 0.33001 0.23197 0.25617-1.7433 0.74077 0.37708 0.64846 0.60783 0.71307 0.14632zm2.1776 1.6893 0.0492-0.25359 5.3e-4 -0.17754-0.19412-0.19977-0.23356-2e-3 -0.28469 7e-3 -0.16425 0.18853 0.0709 0.0763-0.0341 0.15335-0.33937 0.39075-0.08 0.27143-0.0789 0.0999-0.13537 0.0957 0.0693 0.48407 0.41308 0.22627 0.0771-0.17608-0.31274-0.4698 0.13647-0.13777 0.39038 0.11614 0.23804 0.0653 0.24962-0.26741-0.0118-0.61071z" style="fill:#d0d0d0"/>
  <path id="Manassas_Park__VA" class="c51685" d="m850.8 262.27 0.0709 0.0766 0.31723 0.0248 5e-3 0.17325 0.25994 0.0428 0.174 0.12079 0.0493-0.25359 5.3e-4 -0.17754-0.19412-0.20035-0.23357-2e-3 -0.28468 7e-3z" style="fill:#d0d0d0"/>
</svg>
