<?xml version="1.0" encoding="UTF-8"?>
<svg xmlns="http://www.w3.org/2000/svg" xmlns:xlink="http://www.w3.org/1999/xlink" width="40pt" height="40pt" viewBox="0 0 40 40" version="1.1">
<g id="surface617987">
<path style=" stroke:none;fill-rule:nonzero;fill:rgb(10.980392%,15.686275%,20%);fill-opacity:1;" d="M 36.667969 20 C 36.667969 29.277344 29.109375 36.667969 20 36.667969 C 10.894531 36.667969 3.332031 29.277344 3.332031 20 C 3.332031 10.722656 10.722656 3.332031 20 3.332031 C 29.277344 3.332031 36.667969 10.722656 36.667969 20 "/>
<path style=" stroke:none;fill-rule:nonzero;fill:rgb(50.980392%,87.843137%,66.666667%);fill-opacity:1;" d="M 19.316406 27.164062 C 18.292969 26.824219 17.273438 26.824219 16.421875 25.96875 C 16.25 25.628906 16.25 25.289062 16.082031 24.949219 C 15.738281 24.605469 14.886719 24.4375 14.375 24.265625 L 10.96875 24.265625 C 10.453125 24.097656 10.113281 23.414062 9.773438 22.902344 C 9.773438 22.734375 9.773438 22.390625 9.433594 22.390625 C 9.089844 22.222656 8.75 22.5625 8.410156 22.390625 C 8.242188 22.222656 8.242188 22.050781 8.242188 21.878906 C 8.242188 21.371094 8.578125 20.855469 8.921875 20.515625 C 9.433594 20.175781 9.941406 20.6875 10.453125 20.6875 C 10.625 20.6875 10.867188 20.417969 11.039062 20.585938 C 11.546875 20.757812 11.71875 21.4375 11.71875 21.953125 L 11.71875 22.292969 C 11.71875 22.460938 12.070312 22.464844 12.238281 22.464844 C 12.410156 21.613281 12.492188 20.773438 12.578125 19.910156 C 12.679688 18.890625 13.183594 18.128906 14.035156 17.789062 C 14.375 17.617188 14.546875 17.960938 14.886719 17.789062 C 15.910156 17.445312 18.792969 16.128906 18.28125 14.765625 C 17.9375 13.570312 16.882812 12.402344 15.519531 12.570312 C 15.179688 12.738281 12.839844 14.722656 12.328125 14.722656 C 11.476562 14.550781 11.476562 13.359375 11.648438 12.847656 C 11.820312 12.164062 13.351562 9.949219 14.375 10.289062 C 14.546875 10.460938 16.15625 10.832031 16.667969 10.832031 C 16.835938 10.832031 17.007812 10.832031 17.175781 10.664062 C 17.347656 10.492188 17.347656 10.492188 17.347656 10.320312 C 17.347656 9.808594 15.511719 8.710938 15 8.542969 C 13.296875 8.027344 10.453125 8.585938 9.089844 9.78125 C 8.976562 9.878906 8.851562 9.980469 8.71875 10.085938 C 6.421875 12.703125 5.019531 16.132812 5.003906 19.929688 C 5.074219 20.171875 5.179688 20.417969 5.34375 20.6875 C 5.851562 21.710938 6.875 22.734375 7.898438 23.414062 C 8.578125 23.925781 9.941406 23.925781 10.625 24.777344 C 11.136719 25.460938 10.96875 26.3125 10.96875 27.164062 C 10.96875 28.1875 11.648438 29.039062 11.988281 29.890625 C 12.160156 30.402344 12.332031 31.085938 12.5 31.597656 C 12.5 31.765625 12.671875 32.789062 12.671875 32.960938 C 12.6875 33.011719 12.703125 33.050781 12.71875 33.101562 C 13.59375 33.585938 14.515625 33.992188 15.480469 34.296875 C 15.566406 34.257812 15.652344 34.214844 15.738281 34.167969 C 15.910156 34.167969 16.589844 33.300781 16.589844 33.132812 C 17.101562 32.617188 17.445312 31.9375 17.953125 31.597656 C 18.292969 31.425781 18.636719 31.253906 18.976562 30.914062 C 19.316406 30.574219 19.488281 29.890625 19.65625 29.378906 C 19.828125 29.039062 20 28.355469 19.828125 27.847656 C 19.828125 27.503906 19.65625 27.335938 19.316406 27.164062 Z M 19.890625 5.003906 C 19.691406 5.007812 19.5 5.023438 19.304688 5.035156 C 18.894531 5.101562 18.488281 5.285156 18.359375 5.648438 C 18.191406 6.464844 18.867188 6.300781 19.542969 6.464844 C 19.542969 6.464844 19.714844 7.765625 19.714844 7.925781 C 19.882812 8.742188 19.375 9.226562 19.375 10.039062 C 19.375 10.527344 19.375 11.34375 19.714844 11.667969 L 19.882812 11.667969 C 20.054688 11.667969 20.222656 11.503906 20.5625 11.34375 C 21.070312 11.015625 21.578125 10.53125 22.085938 10.203125 C 22.59375 9.878906 23.101562 9.390625 23.441406 9.066406 C 23.949219 8.738281 24.289062 8.089844 24.457031 7.601562 C 24.625 7.273438 25.136719 6.625 24.964844 6.136719 C 24.796875 5.8125 23.949219 5.652344 23.613281 5.488281 C 22.628906 5.25 21.738281 5.105469 20.808594 5.039062 C 20.691406 5.035156 20.574219 5.027344 20.453125 5.023438 C 20.269531 5.015625 20.082031 5.007812 19.890625 5.003906 Z M 35 20 C 35 15.257812 32.851562 11.066406 29.464844 8.328125 C 29.351562 8.355469 29.238281 8.390625 29.128906 8.441406 C 28.617188 8.613281 27.285156 11.074219 26.941406 11.582031 C 26.773438 11.753906 26.601562 12.09375 26.773438 12.265625 C 26.773438 12.4375 26.941406 12.4375 27.113281 12.4375 C 27.453125 12.605469 27.5 12.675781 27.839844 12.847656 C 28.011719 12.847656 28.179688 13.015625 28.011719 13.1875 C 28.011719 13.1875 28.011719 13.359375 27.839844 13.359375 C 26.988281 14.210938 26.136719 14.894531 25.285156 15.742188 C 25.113281 15.914062 25 16.257812 25 16.425781 C 25 16.597656 25.113281 16.597656 25.113281 16.769531 C 25.113281 16.941406 24.941406 16.9375 24.773438 17.109375 C 24.433594 17.277344 24.089844 17.449219 23.917969 17.621094 C 23.75 17.960938 23.917969 18.472656 23.75 18.8125 C 23.578125 19.664062 23.066406 20.347656 22.726562 21.199219 C 22.382812 21.710938 22.078125 22.222656 21.734375 22.734375 C 21.734375 23.417969 21.566406 23.925781 21.90625 24.4375 C 22.757812 25.632812 24.464844 24.488281 25.660156 25 C 26 25.171875 26.289062 25.203125 26.511719 25.511719 C 26.933594 26.097656 26.988281 27.335938 27.160156 27.847656 C 27.328125 28.53125 27.496094 29.210938 27.839844 29.894531 C 28.011719 30.746094 28.351562 31.601562 28.523438 32.277344 C 28.53125 32.289062 28.539062 32.296875 28.546875 32.308594 C 32.429688 29.609375 35 25.128906 35 20 Z M 35 20 "/>
</g>
</svg>
