<?xml version="1.0" encoding="UTF-8"?>
<svg xmlns="http://www.w3.org/2000/svg" xmlns:xlink="http://www.w3.org/1999/xlink" width="48pt" height="48pt" viewBox="0 0 48 48" version="1.1">
<g id="surface2718041">
<path style=" stroke:none;fill-rule:nonzero;fill:rgb(50.980392%,87.843137%,66.666667%);fill-opacity:1;" d="M 8 6 C 5.789062 6 4 7.789062 4 10 L 4 36 C 4 39.3125 6.6875 42 10 42 L 38 42 C 41.289062 42 44 39.289062 44 36 L 44 16 C 44.007812 15.460938 43.796875 14.9375 43.414062 14.558594 C 43.03125 14.175781 42.507812 13.964844 41.96875 13.972656 C 40.867188 13.988281 39.984375 14.898438 40 16 L 40 36 C 40 37.128906 39.128906 38 38 38 C 36.894531 38 36 37.101562 36 36 L 36 10 C 36 7.789062 34.210938 6 32 6 Z M 14 12 L 26 12 C 27.105469 12 28 12.894531 28 14 L 28 16 C 28 17.105469 27.105469 18 26 18 L 14 18 C 12.894531 18 12 17.105469 12 16 L 12 14 C 12 12.894531 12.894531 12 14 12 Z M 14 24 L 26 24 C 27.105469 24 28 24.894531 28 26 C 28 27.105469 27.105469 28 26 28 L 14 28 C 12.894531 28 12 27.105469 12 26 C 12 24.894531 12.894531 24 14 24 Z M 14 32 L 26 32 C 27.105469 32 28 32.894531 28 34 C 28 35.105469 27.105469 36 26 36 L 14 36 C 12.894531 36 12 35.105469 12 34 C 12 32.894531 12.894531 32 14 32 Z M 14 32 "/>
</g>
</svg>
