<?xml version="1.0" encoding="UTF-8"?>
<svg xmlns="http://www.w3.org/2000/svg" xmlns:xlink="http://www.w3.org/1999/xlink" width="40pt" height="40pt" viewBox="0 0 40 40" version="1.1">
<g id="surface2798350">
<path style=" stroke:none;fill-rule:nonzero;fill:rgb(10.980392%,15.686275%,20%);fill-opacity:1;" d="M 22.160156 37.5 C 23.574219 36.503906 24.5 34.859375 24.5 33 L 24.5 5.5 L 37.5 5.5 L 37.5 33 C 37.5 35.480469 35.480469 37.5 33 37.5 Z M 22.160156 37.5 "/>
<path style=" stroke:none;fill-rule:nonzero;fill:rgb(50.980392%,87.843137%,66.666667%);fill-opacity:1;" d="M 37 6 L 37 33 C 37 35.207031 35.207031 37 33 37 L 23.46875 37 C 24.421875 35.9375 25 34.535156 25 33 L 25 6 L 37 6 M 38 5 L 24 5 L 24 33 C 24 35.761719 21.761719 38 19 38 L 33 38 C 35.761719 38 38 35.761719 38 33 Z M 38 5 "/>
<path style=" stroke:none;fill-rule:nonzero;fill:rgb(20%,23.921569%,28.235294%);fill-opacity:1;" d="M 7 37.5 C 4.519531 37.5 2.5 35.480469 2.5 33 L 2.5 1.5 L 28.5 1.5 L 28.5 33 C 28.5 35.3125 30.253906 37.222656 32.5 37.472656 L 32.5 37.5 Z M 7 37.5 "/>
<path style=" stroke:none;fill-rule:nonzero;fill:rgb(50.980392%,87.843137%,66.666667%);fill-opacity:1;" d="M 28 2 L 28 33 C 28 34.632812 28.789062 36.085938 30.003906 37 L 7 37 C 4.792969 37 3 35.207031 3 33 L 3 2 L 28 2 M 29 1 L 2 1 L 2 33 C 2 35.761719 4.238281 38 7 38 L 33 38 L 33 37 C 30.789062 37 29 35.210938 29 33 Z M 29 1 "/>
<path style=" stroke:none;fill-rule:nonzero;fill:rgb(50.980392%,87.843137%,66.666667%);fill-opacity:1;" d="M 33.5 11 L 28.5 11 C 28.226562 11 28 10.773438 28 10.5 C 28 10.226562 28.226562 10 28.5 10 L 33.5 10 C 33.773438 10 34 10.226562 34 10.5 C 34 10.773438 33.773438 11 33.5 11 Z M 33.5 14 L 28.5 14 C 28.226562 14 28 13.773438 28 13.5 C 28 13.226562 28.226562 13 28.5 13 L 33.5 13 C 33.773438 13 34 13.226562 34 13.5 C 34 13.773438 33.773438 14 33.5 14 Z M 33.5 17 L 28.5 17 C 28.226562 17 28 16.773438 28 16.5 C 28 16.226562 28.226562 16 28.5 16 L 33.5 16 C 33.773438 16 34 16.226562 34 16.5 C 34 16.773438 33.773438 17 33.5 17 Z M 33.5 20 L 28.5 20 C 28.226562 20 28 19.773438 28 19.5 C 28 19.226562 28.226562 19 28.5 19 L 33.5 19 C 33.773438 19 34 19.226562 34 19.5 C 34 19.773438 33.773438 20 33.5 20 Z M 33.5 23 L 28.5 23 C 28.226562 23 28 22.773438 28 22.5 C 28 22.226562 28.226562 22 28.5 22 L 33.5 22 C 33.773438 22 34 22.226562 34 22.5 C 34 22.773438 33.773438 23 33.5 23 Z M 33.5 26 L 28.5 26 C 28.226562 26 28 25.773438 28 25.5 C 28 25.226562 28.226562 25 28.5 25 L 33.5 25 C 33.773438 25 34 25.226562 34 25.5 C 34 25.773438 33.773438 26 33.5 26 Z M 33.5 29 L 28.5 29 C 28.226562 29 28 28.773438 28 28.5 C 28 28.226562 28.226562 28 28.5 28 L 33.5 28 C 33.773438 28 34 28.226562 34 28.5 C 34 28.773438 33.773438 29 33.5 29 Z M 33.5 32 L 28.5 32 C 28.226562 32 28 31.773438 28 31.5 C 28 31.226562 28.226562 31 28.5 31 L 33.5 31 C 33.773438 31 34 31.226562 34 31.5 C 34 31.773438 33.773438 32 33.5 32 Z M 33.5 32 "/>
<path style=" stroke:none;fill-rule:nonzero;fill:rgb(50.980392%,87.843137%,66.666667%);fill-opacity:1;" d="M 23.5 12 L 17.5 12 C 17.226562 12 17 11.773438 17 11.5 C 17 11.226562 17.226562 11 17.5 11 L 23.5 11 C 23.773438 11 24 11.226562 24 11.5 C 24 11.773438 23.773438 12 23.5 12 Z M 23.5 15 L 17.5 15 C 17.226562 15 17 14.773438 17 14.5 C 17 14.226562 17.226562 14 17.5 14 L 23.5 14 C 23.773438 14 24 14.226562 24 14.5 C 24 14.773438 23.773438 15 23.5 15 Z M 23.5 18 L 17.5 18 C 17.226562 18 17 17.773438 17 17.5 C 17 17.226562 17.226562 17 17.5 17 L 23.5 17 C 23.773438 17 24 17.226562 24 17.5 C 24 17.773438 23.773438 18 23.5 18 Z M 23.5 21 L 17.5 21 C 17.226562 21 17 20.773438 17 20.5 C 17 20.226562 17.226562 20 17.5 20 L 23.5 20 C 23.773438 20 24 20.226562 24 20.5 C 24 20.773438 23.773438 21 23.5 21 Z M 23.5 24 L 17.5 24 C 17.226562 24 17 23.773438 17 23.5 C 17 23.226562 17.226562 23 17.5 23 L 23.5 23 C 23.773438 23 24 23.226562 24 23.5 C 24 23.773438 23.773438 24 23.5 24 Z M 23.5 27 L 17.5 27 C 17.226562 27 17 26.773438 17 26.5 C 17 26.226562 17.226562 26 17.5 26 L 23.5 26 C 23.773438 26 24 26.226562 24 26.5 C 24 26.773438 23.773438 27 23.5 27 Z M 23.5 30 L 17.5 30 C 17.226562 30 17 29.773438 17 29.5 C 17 29.226562 17.226562 29 17.5 29 L 23.5 29 C 23.773438 29 24 29.226562 24 29.5 C 24 29.773438 23.773438 30 23.5 30 Z M 23.5 33 L 17.5 33 C 17.226562 33 17 32.773438 17 32.5 C 17 32.226562 17.226562 32 17.5 32 L 23.5 32 C 23.773438 32 24 32.226562 24 32.5 C 24 32.773438 23.773438 33 23.5 33 Z M 23.5 33 "/>
<path style=" stroke:none;fill-rule:nonzero;fill:rgb(50.980392%,87.843137%,66.666667%);fill-opacity:1;" d="M 13.5 12 L 7.5 12 C 7.226562 12 7 11.773438 7 11.5 C 7 11.226562 7.226562 11 7.5 11 L 13.5 11 C 13.773438 11 14 11.226562 14 11.5 C 14 11.773438 13.773438 12 13.5 12 Z M 13.5 15 L 7.5 15 C 7.226562 15 7 14.773438 7 14.5 C 7 14.226562 7.226562 14 7.5 14 L 13.5 14 C 13.773438 14 14 14.226562 14 14.5 C 14 14.773438 13.773438 15 13.5 15 Z M 13.5 18 L 7.5 18 C 7.226562 18 7 17.773438 7 17.5 C 7 17.226562 7.226562 17 7.5 17 L 13.5 17 C 13.773438 17 14 17.226562 14 17.5 C 14 17.773438 13.773438 18 13.5 18 Z M 13.5 21 L 7.5 21 C 7.226562 21 7 20.773438 7 20.5 C 7 20.226562 7.226562 20 7.5 20 L 13.5 20 C 13.773438 20 14 20.226562 14 20.5 C 14 20.773438 13.773438 21 13.5 21 Z M 13.5 24 L 7.5 24 C 7.226562 24 7 23.773438 7 23.5 C 7 23.226562 7.226562 23 7.5 23 L 13.5 23 C 13.773438 23 14 23.226562 14 23.5 C 14 23.773438 13.773438 24 13.5 24 Z M 13.5 27 L 7.5 27 C 7.226562 27 7 26.773438 7 26.5 C 7 26.226562 7.226562 26 7.5 26 L 13.5 26 C 13.773438 26 14 26.226562 14 26.5 C 14 26.773438 13.773438 27 13.5 27 Z M 13.5 30 L 7.5 30 C 7.226562 30 7 29.773438 7 29.5 C 7 29.226562 7.226562 29 7.5 29 L 13.5 29 C 13.773438 29 14 29.226562 14 29.5 C 14 29.773438 13.773438 30 13.5 30 Z M 13.5 33 L 7.5 33 C 7.226562 33 7 32.773438 7 32.5 C 7 32.226562 7.226562 32 7.5 32 L 13.5 32 C 13.773438 32 14 32.226562 14 32.5 C 14 32.773438 13.773438 33 13.5 33 Z M 13.5 33 "/>
<path style=" stroke:none;fill-rule:nonzero;fill:rgb(50.980392%,87.843137%,66.666667%);fill-opacity:1;" d="M 23 8 L 8 8 C 7.449219 8 7 7.550781 7 7 C 7 6.449219 7.449219 6 8 6 L 23 6 C 23.550781 6 24 6.449219 24 7 C 24 7.550781 23.550781 8 23 8 Z M 23 8 "/>
</g>
</svg>
