<?xml version="1.0" encoding="UTF-8"?>
<svg xmlns="http://www.w3.org/2000/svg" xmlns:xlink="http://www.w3.org/1999/xlink" width="64pt" height="64pt" viewBox="0 0 64 64" version="1.1">
<g id="surface2961298">
<path style=" stroke:none;fill-rule:nonzero;fill:rgb(50.980392%,87.843137%,66.666667%);fill-opacity:1;" d="M 36.25 9.300781 C 36.25 9.300781 34.949219 11.351562 32.800781 14.75 C 31.351562 17 30.898438 19.800781 32.800781 21.699219 C 34.699219 23.601562 37.800781 23.601562 39.699219 21.699219 C 41.601562 19.800781 41.449219 17.5 39.699219 14.75 C 37.699219 11.648438 36.25 9.300781 36.25 9.300781 Z M 46.75 25.597656 C 46.140625 25.601562 45.554688 25.84375 45.125 26.273438 C 44.691406 26.707031 44.449219 27.289062 44.449219 27.898438 C 44.449219 29.171875 45.480469 30.199219 46.75 30.199219 C 48.019531 30.199219 49.050781 29.171875 49.050781 27.898438 C 49.050781 27.289062 48.808594 26.707031 48.375 26.273438 C 47.945312 25.84375 47.359375 25.601562 46.75 25.597656 Z M 37.25 31.800781 C 37 31.800781 36.75 31.800781 36.550781 31.847656 L 36.402344 31.847656 C 36.199219 31.847656 35.949219 31.898438 35.75 31.898438 C 33.199219 32.050781 30.949219 33.25 29.300781 35.148438 C 29.199219 35.25 29.148438 35.351562 29.050781 35.449219 C 29.050781 35.5 29 35.5 29 35.550781 C 28.148438 35.101562 27.199219 34.851562 26.25 34.851562 C 24.601562 34.851562 23.101562 35.5 21.949219 36.652344 C 21.351562 37.25 21.351562 38.199219 21.949219 38.75 C 22.550781 39.351562 23.5 39.351562 24.050781 38.75 C 24.648438 38.148438 25.398438 37.851562 26.199219 37.851562 C 26.648438 37.851562 27.050781 37.949219 27.449219 38.152344 C 27.351562 38.800781 27.648438 39.5 28.300781 39.800781 C 28.5 39.898438 28.699219 39.949219 28.949219 39.949219 C 29.5 39.949219 30.050781 39.648438 30.300781 39.101562 C 30.398438 38.898438 30.5 38.699219 30.652344 38.5 L 30.699219 38.449219 C 31.050781 37.851562 31.449219 37.351562 31.949219 36.902344 C 33.199219 35.652344 34.898438 34.898438 36.699219 34.75 L 37.300781 34.75 C 37.550781 34.75 37.75 34.75 38 34.800781 L 38.152344 34.800781 C 38.402344 34.851562 38.601562 34.851562 38.851562 34.902344 C 39.101562 34.949219 39.300781 35 39.550781 35.101562 L 39.601562 35.101562 C 40.800781 35.5 41.898438 36.148438 42.800781 37.101562 C 42.800781 37.101562 42.851562 37.101562 42.851562 37.152344 C 43.25 37.550781 43.601562 38 43.851562 38.5 C 44.300781 39.199219 45.199219 39.449219 45.902344 39 C 46.601562 38.550781 46.851562 37.648438 46.402344 36.949219 C 46.300781 36.75 46.199219 36.601562 46.050781 36.449219 C 46.148438 36.449219 46.300781 36.402344 46.402344 36.402344 C 47.449219 36.402344 48.351562 37.300781 48.351562 38.351562 C 48.351562 38.601562 48.300781 38.800781 48.199219 39.050781 C 48 39.550781 48.101562 40.101562 48.449219 40.550781 C 48.800781 41 49.300781 41.148438 49.851562 41.101562 C 50.101562 41.050781 50.351562 41.050781 50.550781 41.050781 C 52.199219 41.050781 53.648438 42 54.351562 43.5 C 54.601562 44.050781 55.148438 44.351562 55.699219 44.351562 C 55.898438 44.351562 56.148438 44.300781 56.351562 44.199219 C 57.101562 43.851562 57.398438 42.949219 57.050781 42.199219 C 56 39.898438 53.800781 38.351562 51.300781 38.101562 C 51.148438 35.5 49 33.449219 46.402344 33.449219 C 45.5 33.449219 44.648438 33.699219 43.851562 34.152344 C 42.5 33.050781 40.851562 32.300781 39.101562 32 C 39.050781 32 38.949219 32 38.902344 31.949219 C 38.699219 31.898438 38.5 31.898438 38.300781 31.851562 L 38.050781 31.851562 C 37.800781 31.851562 37.5 31.800781 37.25 31.800781 Z M 34.902344 36.851562 C 34.289062 36.847656 33.703125 37.089844 33.273438 37.523438 C 32.839844 37.953125 32.597656 38.539062 32.597656 39.152344 C 32.601562 39.761719 32.84375 40.34375 33.273438 40.777344 C 33.707031 41.207031 34.289062 41.449219 34.902344 41.449219 C 36.171875 41.449219 37.199219 40.421875 37.199219 39.152344 C 37.199219 38.539062 36.957031 37.957031 36.527344 37.523438 C 36.09375 37.09375 35.511719 36.851562 34.902344 36.851562 Z M 7.800781 39.800781 C 6.949219 39.800781 6.300781 40.449219 6.300781 41.300781 C 6.300781 42.148438 6.949219 42.800781 7.800781 42.800781 L 14.949219 42.800781 C 15 42.800781 15.050781 42.847656 15.050781 42.847656 L 15.050781 55.949219 L 7.800781 55.949219 C 6.949219 55.949219 6.300781 56.601562 6.300781 57.449219 C 6.300781 58.300781 6.949219 58.949219 7.800781 58.949219 L 15.050781 58.949219 C 16.199219 58.949219 17.199219 58.300781 17.699219 57.398438 L 30.5 61.398438 C 30.648438 61.449219 32.648438 62 35.050781 62 C 36.351562 62 37.699219 61.847656 38.949219 61.347656 C 41.601562 60.300781 51.550781 55.050781 55.699219 52.847656 C 57.101562 52.097656 58.199219 50.300781 57.449219 48.449219 C 57 47.351562 55.699219 45.601562 52.449219 46.550781 L 52.402344 46.550781 L 46.550781 48.5 C 45.75 48.75 45.351562 49.601562 45.601562 50.398438 C 45.851562 51.199219 46.699219 51.597656 47.5 51.347656 L 53.25 49.398438 C 54.449219 49.050781 54.550781 49.300781 54.652344 49.597656 C 54.75 49.847656 54.351562 50.148438 54.300781 50.148438 C 47.648438 53.648438 39.851562 57.699219 37.800781 58.550781 C 35.199219 59.601562 31.351562 58.5 31.351562 58.5 L 18 54.347656 L 18 44.800781 L 22.601562 44.800781 C 24.5 44.800781 29.851562 45.398438 31.800781 48.199219 C 32.101562 48.601562 32.550781 48.847656 33.050781 48.847656 L 40.351562 48.847656 C 41 48.847656 41.601562 49.300781 41.652344 49.898438 L 41.652344 50.25 C 41.652344 50.300781 41.648438 50.347656 41.601562 50.347656 C 41.601562 50.398438 41.601562 50.398438 41.550781 50.449219 C 41.351562 50.851562 40.949219 51.148438 40.449219 51.148438 L 29.902344 51.148438 C 29.050781 51.148438 28.402344 51.800781 28.402344 52.648438 C 28.402344 53.5 29.050781 54.148438 29.902344 54.148438 L 40.5 54.148438 C 41.949219 54.148438 43.25 53.398438 44 52.25 L 44.050781 52.199219 C 44.101562 52.148438 44.101562 52.101562 44.152344 52.050781 C 44.152344 52 44.199219 51.949219 44.199219 51.949219 C 44.25 51.851562 44.300781 51.75 44.351562 51.597656 L 44.351562 51.550781 C 44.398438 51.449219 44.449219 51.351562 44.449219 51.199219 L 44.449219 51.097656 C 44.5 51 44.5 50.898438 44.550781 50.800781 L 44.550781 50.699219 C 44.550781 50.601562 44.601562 50.5 44.601562 50.398438 L 44.601562 50.300781 C 44.601562 50.050781 44.648438 49.800781 44.601562 49.550781 C 44.398438 47.398438 42.550781 45.75 40.300781 45.75 L 33.800781 45.75 C 30.300781 41.75 22.949219 41.699219 22.652344 41.699219 L 17.800781 41.699219 C 17.351562 40.601562 16.25 39.800781 14.949219 39.800781 Z M 46.648438 41.5 C 46.34375 41.5 46.050781 41.621094 45.835938 41.835938 C 45.621094 42.050781 45.5 42.34375 45.5 42.648438 C 45.5 43.285156 46.015625 43.800781 46.648438 43.800781 C 47.285156 43.800781 47.800781 43.285156 47.800781 42.648438 C 47.800781 42.015625 47.285156 41.5 46.648438 41.5 Z M 46.648438 41.5 "/>
</g>
</svg>
